<?xml version="1.0" encoding="iso-8859-1"?>
<!-- Uploaded to: SVG Repo, www.svgrepo.com, Generator: SVG Repo Mixer Tools -->
<!DOCTYPE svg PUBLIC "-//W3C//DTD SVG 1.1//EN" "http://www.w3.org/Graphics/SVG/1.1/DTD/svg11.dtd">
<svg fill="#008080" version="1.1" id="Capa_1" xmlns="http://www.w3.org/2000/svg" xmlns:xlink="http://www.w3.org/1999/xlink" 
	 width="800px" height="800px" viewBox="0 0 407.47 407.471"
	 xml:space="preserve">
<g>
	<g>
		<path d="M358.744,82.889h-39.517l10.459-20.993l43.511-35.239c6.438-5.214,7.43-14.659,2.215-21.097s-14.66-7.431-21.099-2.215
			l-46.041,37.29c-1.668,1.351-3.026,3.045-3.983,4.967L285.71,82.89h-98.976c-8.192-35.493-40.032-62.043-77.977-62.043
			c-44.136,0-80.043,35.907-80.043,80.043c0,44.136,35.907,80.043,80.043,80.043c8.426,0,16.693-1.318,24.567-3.855l77.926,106.346
			v84.047h-40c-11.046,0-20,8.954-20,20s8.954,20,20,20H291.25c11.047,0,20-8.954,20-20s-8.953-20-20-20H251.25v-84.047
			l123.626-168.712c4.453-6.078,5.113-14.144,1.705-20.865C373.175,87.125,366.281,82.889,358.744,82.889z M108.757,150.846
			c-27.546,0-49.957-22.411-49.957-49.957c0-27.546,22.411-49.957,49.957-49.957c21.202,0,39.348,13.282,46.588,31.957h-51.588
			c-7.536,0-14.431,4.235-17.838,10.957c-3.408,6.721-2.748,14.787,1.706,20.865l26.282,35.868
			C112.205,150.752,110.486,150.846,108.757,150.846z"/>
	</g>
</g>
</svg>